<?xml version="1.0" encoding="UTF-8" standalone="no"?>
<!-- Generator: Adobe Illustrator 16.0.0, SVG Export Plug-In . SVG Version: 6.00 Build 0)  -->

<svg
   xmlns:dc="http://purl.org/dc/elements/1.1/"
   xmlns:cc="http://creativecommons.org/ns#"
   xmlns:rdf="http://www.w3.org/1999/02/22-rdf-syntax-ns#"
   xmlns:svg="http://www.w3.org/2000/svg"
   xmlns="http://www.w3.org/2000/svg"
   xmlns:xlink="http://www.w3.org/1999/xlink"
   xmlns:sodipodi="http://sodipodi.sourceforge.net/DTD/sodipodi-0.dtd"
   xmlns:inkscape="http://www.inkscape.org/namespaces/inkscape"
   version="1.1"
   id="レイヤー_1"
   x="0px"
   y="0px"
   width="128px"
   height="128px"
   viewBox="0 0 128 128"
   enable-background="new 0 0 128 128"
   xml:space="preserve"
   inkscape:version="0.48.5 r10040"
   sodipodi:docname="Magnifier.svg"><metadata
   id="metadata33"><rdf:RDF><cc:Work
       rdf:about=""><dc:format>image/svg+xml</dc:format><dc:type
         rdf:resource="http://purl.org/dc/dcmitype/StillImage" /><dc:title /></cc:Work></rdf:RDF></metadata><defs
   id="defs31"><filter
   style="color-interpolation-filters:sRGB;"
   inkscape:label="Drop Shadow"
   id="filter3770"><feFlood
     flood-opacity="0.5"
     flood-color="rgb(0,0,0)"
     result="flood"
     id="feFlood3772" /><feComposite
     in="flood"
     in2="SourceGraphic"
     operator="in"
     result="composite1"
     id="feComposite3774" /><feGaussianBlur
     in="composite"
     stdDeviation="2"
     result="blur"
     id="feGaussianBlur3776" /><feOffset
     dx="4"
     dy="4"
     result="offset"
     id="feOffset3778" /><feComposite
     in="SourceGraphic"
     in2="offset"
     operator="over"
     result="composite2"
     id="feComposite3780" /></filter>
	
	

		
		
	</defs><sodipodi:namedview
   pagecolor="#ffffff"
   bordercolor="#666666"
   borderopacity="1"
   objecttolerance="10"
   gridtolerance="10"
   guidetolerance="10"
   inkscape:pageopacity="0"
   inkscape:pageshadow="2"
   inkscape:window-width="1280"
   inkscape:window-height="662"
   id="namedview29"
   showgrid="true"
   showborder="false"
   inkscape:showpageshadow="false"
   inkscape:zoom="3.6875"
   inkscape:cx="45.698949"
   inkscape:cy="62.439586"
   inkscape:window-x="-8"
   inkscape:window-y="-8"
   inkscape:window-maximized="1"
   inkscape:current-layer="レイヤー_1"><inkscape:grid
     type="xygrid"
     id="grid3010"
     empspacing="5"
     visible="true"
     enabled="true"
     snapvisiblegridlinesonly="true" /></sodipodi:namedview>
<path
   style="fill:#505050;filter:url(#filter3770);fill-opacity:1"
   d="M 81.90625 0.1875 C 70.15 0.1875 58.4075 4.66 49.4375 13.625 C 32.9675 30.105 31.6575 55.95875 45.4375 73.96875 L 26.46875 92.9375 L 35.09375 101.53125 L 54.0625 82.59375 C 72.0725 96.38375 97.91625 95.07375 114.40625 78.59375 C 132.33625 60.65375 132.33625 31.565 114.40625 13.625 C 105.43125 4.66 93.6625 0.1875 81.90625 0.1875 z M 81.90625 9.84375 C 91.1875 9.8425 100.4775 13.38375 107.5625 20.46875 C 121.7225 34.62875 121.7225 57.60125 107.5625 71.78125 C 93.4025 85.94125 70.43 85.94125 56.25 71.78125 C 42.09 57.60125 42.09 34.62875 56.25 20.46875 C 63.34 13.38875 72.625 9.845 81.90625 9.84375 z "
   id="path7" /><g
   style="filter:url(#filter3770);fill:#505050;fill-opacity:1"
   id="g11">
		<g
   id="g13"
   style="fill:#505050;fill-opacity:1">
			<g
   id="g15"
   style="fill:#505050;fill-opacity:1">
				<g
   id="g17"
   style="fill:#505050;fill-opacity:1">
					<defs
   id="defs19">
						<path
   inkscape:connector-curvature="0"
   d="m 4.69,123.27 c 4.4,4.42 10.12,5.86 12.75,3.23 0,0 25.5,-25.56 25.53,-25.59 C 49.17,94.71 33.5,78.44 27,84.94 L 1.47,110.53 c -2.64,2.63 -1.19,8.34 3.22,12.74 z"
   id="SVGID_1_" />
					</defs>
					<use
   height="128"
   width="128"
   y="0"
   x="0"
   style="fill:#505050;overflow:visible;fill-opacity:1"
   id="use22"
   overflow="visible"
   xlink:href="#SVGID_1_" />
					<clipPath
   id="SVGID_2_">
						<use
   height="128"
   width="128"
   y="0"
   x="0"
   style="overflow:visible"
   id="use25"
   overflow="visible"
   xlink:href="#SVGID_1_" />
					</clipPath>
					<path
   style="fill:#505050;fill-opacity:1"
   inkscape:connector-curvature="0"
   id="path27"
   d="m 16.77,125.77 c -0.18,-2.04 -1.51,-4.45 -2.37,-5.81 -2.57,-4.07 -5.8,-7.44 -10.62,-8.72 -4.9,-1.31 -5.39,2.38 -4.22,6.12 1.42,4.51 4.22,7.9 8.36,10.27 0.97,0.56 2.26,1.35 3.38,1.52 2.74,0.39 5.76,0.04 5.47,-3.38 z"
   clip-path="url(#SVGID_2_)" />
				</g>
			</g>
		</g>
	</g>
<rect
   style="fill:#505050;fill-opacity:1;stroke:none"
   id="rect3012"
   width="5"
   height="50"
   x="79.410004"
   y="21.113125"
   ry="2.5" /><rect
   style="fill:#505050;fill-opacity:1;stroke:none"
   id="rect3012-2"
   width="5"
   height="50"
   x="-48.613125"
   y="56.91"
   transform="matrix(0,-1,1,0,0,0)"
   ry="2.5" /></svg>